<svg width="130" height="22" viewBox="0 0 130 22" fill="none" xmlns="http://www.w3.org/2000/svg">
<path d="M29.2912 18V4.90909H34.2003C35.206 4.90909 36.0497 5.08381 36.7315 5.43324C37.4176 5.78267 37.9354 6.27273 38.2848 6.90341C38.6385 7.52983 38.8153 8.26065 38.8153 9.09588C38.8153 9.93537 38.6364 10.6641 38.2784 11.282C37.9247 11.8956 37.4027 12.3707 36.7124 12.7074C36.022 13.0398 35.174 13.206 34.1683 13.206H30.6719V11.2372H33.8487C34.4368 11.2372 34.9183 11.1562 35.2933 10.9943C35.6683 10.8281 35.9453 10.5874 36.1243 10.272C36.3075 9.95241 36.3991 9.56037 36.3991 9.09588C36.3991 8.63139 36.3075 8.23509 36.1243 7.90696C35.9411 7.57457 35.6619 7.32315 35.2869 7.1527C34.9119 6.97798 34.4283 6.89062 33.8359 6.89062H31.6626V18H29.2912ZM36.054 12.0682L39.2947 18H36.6484L33.4652 12.0682H36.054ZM45.1019 18.1918C44.1175 18.1918 43.2674 17.9872 42.5515 17.5781C41.8398 17.1648 41.2923 16.581 40.9087 15.8267C40.5252 15.0682 40.3335 14.1754 40.3335 13.1484C40.3335 12.1385 40.5252 11.2521 40.9087 10.4893C41.2965 9.7223 41.8377 9.12571 42.5323 8.69957C43.2269 8.26918 44.043 8.05398 44.9805 8.05398C45.5856 8.05398 46.1566 8.15199 46.6935 8.34801C47.2347 8.53977 47.712 8.83807 48.1254 9.2429C48.543 9.64773 48.8711 10.1634 49.1097 10.7898C49.3484 11.4119 49.4677 12.1534 49.4677 13.0142V13.7237H41.4201V12.1641H47.2496C47.2454 11.7209 47.1495 11.3267 46.962 10.9815C46.7745 10.6321 46.5124 10.3572 46.1758 10.157C45.8434 9.95668 45.4556 9.85653 45.0124 9.85653C44.5394 9.85653 44.1239 9.97159 43.766 10.2017C43.408 10.4276 43.1289 10.7259 42.9286 11.0966C42.7326 11.4631 42.6325 11.8658 42.6282 12.3047V13.6662C42.6282 14.2372 42.7326 14.7273 42.9414 15.1364C43.1502 15.5412 43.4421 15.8523 43.8171 16.0696C44.1921 16.2827 44.631 16.3892 45.1339 16.3892C45.4705 16.3892 45.7752 16.3423 46.0479 16.2486C46.3207 16.1506 46.5572 16.0078 46.7575 15.8203C46.9577 15.6328 47.109 15.4006 47.2113 15.1236L49.3718 15.3665C49.2354 15.9375 48.9755 16.4361 48.592 16.8622C48.2127 17.2841 47.7269 17.6122 47.1346 17.8466C46.5423 18.0767 45.8647 18.1918 45.1019 18.1918ZM53.3988 18L50.6246 8.18182H52.9833L54.7092 15.0852H54.7987L56.5629 8.18182H58.896L60.6602 15.0469H60.756L62.4563 8.18182H64.8214L62.0408 18H59.631L57.7901 11.3651H57.6559L55.815 18H53.3988ZM66.437 18V8.18182H68.7509V18H66.437ZM67.6003 6.78835C67.2338 6.78835 66.9185 6.6669 66.6543 6.42401C66.3901 6.17685 66.258 5.88068 66.258 5.53551C66.258 5.18608 66.3901 4.88991 66.6543 4.64702C66.9185 4.39986 67.2338 4.27628 67.6003 4.27628C67.9711 4.27628 68.2864 4.39986 68.5463 4.64702C68.8105 4.88991 68.9426 5.18608 68.9426 5.53551C68.9426 5.88068 68.8105 6.17685 68.5463 6.42401C68.2864 6.6669 67.9711 6.78835 67.6003 6.78835ZM73.4442 12.2472V18H71.1303V8.18182H73.342V9.85014H73.457C73.6829 9.30043 74.043 8.86364 74.5373 8.53977C75.0359 8.21591 75.6516 8.05398 76.3846 8.05398C77.0621 8.05398 77.6523 8.19886 78.1552 8.48864C78.6623 8.77841 79.0543 9.19815 79.3313 9.74787C79.6126 10.2976 79.7511 10.9645 79.7468 11.7486V18H77.4329V12.1065C77.4329 11.4503 77.2624 10.9368 76.9215 10.5661C76.5849 10.1953 76.1183 10.0099 75.5217 10.0099C75.1168 10.0099 74.7567 10.0994 74.4414 10.2784C74.1303 10.4531 73.8853 10.7067 73.7063 11.0391C73.5316 11.3714 73.4442 11.7741 73.4442 12.2472ZM85.7425 18.1726C84.9712 18.1726 84.2809 17.9744 83.6715 17.5781C83.0621 17.1818 82.5806 16.6065 82.2269 15.8523C81.8732 15.098 81.6964 14.1818 81.6964 13.1037C81.6964 12.0128 81.8754 11.0923 82.2333 10.3423C82.5955 9.58807 83.0835 9.01918 83.6971 8.63565C84.3107 8.24787 84.9947 8.05398 85.7489 8.05398C86.3242 8.05398 86.7972 8.15199 87.168 8.34801C87.5387 8.53977 87.8327 8.77202 88.0501 9.04474C88.2674 9.31321 88.4357 9.56676 88.555 9.8054H88.6509V4.90909H90.9712V18H88.6957V16.4531H88.555C88.4357 16.6918 88.2631 16.9453 88.0373 17.2138C87.8114 17.478 87.5131 17.7038 87.1424 17.8913C86.7717 18.0788 86.305 18.1726 85.7425 18.1726ZM86.3881 16.2741C86.8782 16.2741 87.2958 16.142 87.641 15.8778C87.9862 15.6094 88.2482 15.2365 88.4272 14.7592C88.6062 14.282 88.6957 13.7259 88.6957 13.0909C88.6957 12.456 88.6062 11.9041 88.4272 11.4354C88.2525 10.9666 87.9925 10.6023 87.6474 10.3423C87.3065 10.0824 86.8867 9.95241 86.3881 9.95241C85.8725 9.95241 85.4421 10.0866 85.0969 10.3551C84.7518 10.6236 84.4918 10.9943 84.3171 11.4673C84.1424 11.9403 84.055 12.4815 84.055 13.0909C84.055 13.7045 84.1424 14.2521 84.3171 14.7337C84.4961 15.2109 84.7582 15.5881 85.1033 15.8651C85.4528 16.1378 85.881 16.2741 86.3881 16.2741Z" fill="white"/>
<path d="M99.1335 18.1598C98.473 18.1598 97.8835 17.9911 97.3651 17.6538C96.8501 17.3129 96.4453 16.8281 96.1506 16.1996C95.8594 15.5675 95.7138 14.8093 95.7138 13.9251C95.7138 13.0408 95.8612 12.2844 96.1559 11.6559C96.4542 11.0273 96.8626 10.5462 97.381 10.2124C97.8995 9.87855 98.4872 9.71165 99.1442 9.71165C99.652 9.71165 100.06 9.79688 100.369 9.96733C100.682 10.1342 100.923 10.3295 101.094 10.5533C101.268 10.777 101.403 10.9741 101.499 11.1445H101.594V7.09091H103.187V18H101.632V16.7269H101.499C101.403 16.9009 101.264 17.0998 101.083 17.3235C100.906 17.5472 100.661 17.7425 100.348 17.9094C100.036 18.0763 99.6307 18.1598 99.1335 18.1598ZM99.4851 16.8015C99.9432 16.8015 100.33 16.6808 100.646 16.4393C100.966 16.1942 101.207 15.8551 101.371 15.4219C101.538 14.9886 101.621 14.4844 101.621 13.9091C101.621 13.3409 101.539 12.8437 101.376 12.4176C101.213 11.9915 100.973 11.6594 100.657 11.4215C100.341 11.1836 99.9503 11.0646 99.4851 11.0646C99.0057 11.0646 98.6062 11.1889 98.2866 11.4375C97.967 11.6861 97.7255 12.0252 97.5621 12.4549C97.4023 12.8846 97.3224 13.3693 97.3224 13.9091C97.3224 14.456 97.4041 14.9478 97.5675 15.3846C97.7308 15.8214 97.9723 16.1676 98.2919 16.4233C98.6151 16.6754 99.0128 16.8015 99.4851 16.8015ZM108.907 18.1651C108.14 18.1651 107.47 17.9893 106.899 17.6378C106.327 17.2862 105.883 16.7944 105.567 16.1623C105.251 15.5302 105.093 14.7915 105.093 13.9464C105.093 13.0977 105.251 12.3555 105.567 11.7198C105.883 11.0842 106.327 10.5906 106.899 10.239C107.47 9.88743 108.14 9.71165 108.907 9.71165C109.674 9.71165 110.343 9.88743 110.915 10.239C111.487 10.5906 111.93 11.0842 112.247 11.7198C112.563 12.3555 112.721 13.0977 112.721 13.9464C112.721 14.7915 112.563 15.5302 112.247 16.1623C111.93 16.7944 111.487 17.2862 110.915 17.6378C110.343 17.9893 109.674 18.1651 108.907 18.1651ZM108.912 16.8281C109.409 16.8281 109.821 16.6967 110.148 16.4339C110.475 16.1712 110.716 15.8214 110.872 15.3846C111.032 14.9478 111.112 14.4666 111.112 13.9411C111.112 13.419 111.032 12.9396 110.872 12.5028C110.716 12.0625 110.475 11.7092 110.148 11.4428C109.821 11.1765 109.409 11.0433 108.912 11.0433C108.411 11.0433 107.996 11.1765 107.666 11.4428C107.339 11.7092 107.096 12.0625 106.936 12.5028C106.78 12.9396 106.701 13.419 106.701 13.9411C106.701 14.4666 106.78 14.9478 106.936 15.3846C107.096 15.8214 107.339 16.1712 107.666 16.4339C107.996 16.6967 108.411 16.8281 108.912 16.8281ZM117.945 18.1651C117.153 18.1651 116.471 17.9858 115.899 17.6271C115.331 17.2649 114.894 16.766 114.589 16.1303C114.284 15.4947 114.131 14.7667 114.131 13.9464C114.131 13.1154 114.287 12.3821 114.6 11.7464C114.912 11.1072 115.352 10.6083 115.921 10.2496C116.489 9.89098 117.158 9.71165 117.929 9.71165C118.55 9.71165 119.104 9.82706 119.591 10.0579C120.077 10.2852 120.47 10.6048 120.768 11.0167C121.07 11.4286 121.249 11.9098 121.306 12.4602H119.756C119.671 12.0767 119.475 11.7464 119.17 11.4695C118.868 11.1925 118.463 11.054 117.955 11.054C117.512 11.054 117.123 11.1712 116.789 11.4055C116.459 11.6364 116.201 11.9666 116.017 12.3963C115.832 12.8224 115.74 13.3267 115.74 13.9091C115.74 14.5057 115.83 15.0206 116.011 15.4538C116.192 15.8871 116.448 16.2227 116.778 16.4606C117.112 16.6985 117.504 16.8175 117.955 16.8175C118.257 16.8175 118.531 16.7624 118.776 16.6523C119.024 16.5387 119.232 16.3771 119.399 16.1676C119.569 15.9581 119.688 15.706 119.756 15.4112H121.306C121.249 15.9403 121.077 16.4126 120.789 16.8281C120.502 17.2436 120.116 17.5703 119.633 17.8082C119.154 18.0462 118.591 18.1651 117.945 18.1651ZM129.14 11.8157L127.697 12.0714C127.636 11.8867 127.54 11.7109 127.409 11.544C127.281 11.3771 127.107 11.2404 126.887 11.1339C126.667 11.0273 126.392 10.9741 126.061 10.9741C125.61 10.9741 125.234 11.0753 124.932 11.2777C124.63 11.4766 124.479 11.734 124.479 12.0501C124.479 12.3235 124.581 12.5437 124.783 12.7106C124.985 12.8775 125.312 13.0142 125.763 13.1207L127.063 13.419C127.816 13.593 128.377 13.8612 128.746 14.2234C129.115 14.5856 129.3 15.0561 129.3 15.6349C129.3 16.125 129.158 16.5618 128.874 16.9453C128.593 17.3253 128.201 17.6236 127.697 17.8402C127.196 18.0568 126.615 18.1651 125.955 18.1651C125.039 18.1651 124.291 17.9698 123.712 17.5792C123.133 17.185 122.778 16.6257 122.647 15.9013L124.186 15.6669C124.282 16.0682 124.479 16.3718 124.778 16.5778C125.076 16.7802 125.465 16.8814 125.944 16.8814C126.466 16.8814 126.883 16.7731 127.196 16.5565C127.508 16.3363 127.665 16.0682 127.665 15.7521C127.665 15.4964 127.569 15.2816 127.377 15.1076C127.189 14.9336 126.899 14.8022 126.509 14.7134L125.124 14.4098C124.36 14.2358 123.796 13.9588 123.43 13.5788C123.068 13.1989 122.887 12.7177 122.887 12.1353C122.887 11.6523 123.022 11.2298 123.291 10.8675C123.561 10.5053 123.934 10.223 124.41 10.0206C124.886 9.81463 125.431 9.71165 126.045 9.71165C126.93 9.71165 127.626 9.90341 128.133 10.2869C128.641 10.6669 128.977 11.1765 129.14 11.8157Z" fill="#B6B6B6"/>
<path d="M9.39727 14.7381C10.0103 13.7434 10.0103 12.4947 9.39727 11.5H13.603C12.99 12.4947 12.99 13.7434 13.603 14.7381H9.39727ZM16.4287 14.7381C17.093 14.7381 17.6927 14.3435 17.9463 13.7383C18.2009 13.1332 18.0603 12.437 17.59 11.9746C17.1207 11.5111 16.4143 11.3725 15.8003 11.6234C15.1863 11.8734 14.7858 12.4643 14.7858 13.119C14.7889 14.0125 15.5221 14.7351 16.4287 14.7381ZM6.57156 14.7381C7.23588 14.7381 7.83553 14.3435 8.08914 13.7383C8.34378 13.1332 8.20311 12.437 7.73284 11.9746C7.26358 11.5111 6.55716 11.3725 5.94315 11.6234C5.32914 11.8734 4.92868 12.4643 4.92868 13.119C4.93176 14.0125 5.66491 14.7351 6.57156 14.7381ZM7.21227 6.2219L15.788 6.2381L16.2316 4.61905L16.6669 3H6.33346L6.76881 4.61905L7.21227 6.2219ZM23 5.42857V17.5714C22.9959 18.9112 21.8952 19.996 20.5357 20H2.46429C1.10481 19.996 0.00410057 18.9112 0 17.5714V5.42857C0.00410714 4.0888 1.10481 3.00404 2.46429 3H4.63286L5.0682 4.61905L5.61857 6.62667C5.79723 7.35019 6.45643 7.85916 7.21214 7.85714H15.7879C16.5384 7.86018 17.1956 7.35928 17.3814 6.64286L17.9318 4.61905L18.3671 3H20.5357C21.8952 3.00405 22.9959 4.0888 23 5.42857ZM3.28571 13.1192C3.28571 13.9783 3.63174 14.802 4.24782 15.4091C4.86391 16.0162 5.69969 16.3573 6.57143 16.3573H16.4286C18.2429 16.3573 19.7143 14.9072 19.7143 13.1192C19.7143 11.3312 18.2429 9.88108 16.4286 9.88108H6.57143C4.75711 9.88108 3.28571 11.3312 3.28571 13.1192Z" fill="#5D6DDF"/>
</svg>
